#!OML:ASF H:\Male1\Project 1\Capture day 1\Session 1\Male1.ASF
:FULLY-SPECIFIED
:DEGREES
244
root 30.0302 15.209 5.61118 179.186 8.07231 -169.783
lowerback 13.8675 -0.238677 0.415425
upperback 6.2343 0.534938 1.03961
thorax -1.22448 0.588474 0.763236
lowerneck -8.56718 9.25148 10.0407
upperneck 3.13887 11.6151 -5.96998
head 3.23341 5.70479 -2.69574
rclavicle 2.94201e-014 9.54166e-015
rhumerus -77.5934 14.3546 -93.5925
rradius 64.655
rwrist -45.1024
rhand -30.6603 -1.86818
rfingers 7.12502
rthumb -3.95509 -31.8112
lclavicle 2.94201e-014 9.54166e-015
lhumerus -43.2746 3.34775 41.3918
lradius 76.7869
lwrist 15.1749
lhand -35.1229 15.8942
lfingers 7.12502
lthumb -8.26334 45.7126
rfemur -10.4132 9.79734 16.9485
rtibia 38.2228
rfoot -21.5118 -36.6641
rtoes 15.3442
lfemur -9.14903 -7.27346 -20.6984
ltibia 50.5643
lfoot -13.9879 0.758766
ltoes 9.30655
245
root 30.4295 14.9364 5.68654 178.81 7.45227 -169.815
lowerback 14.9031 -0.311601 -0.494363
upperback 6.4534 0.405223 1.19928
thorax -1.54528 0.538592 1.458
lowerneck -9.16318 8.86686 10.1088
upperneck 3.49532 11.0445 -5.99248
head 3.39812 5.41375 -2.72561
rclavicle 1.43125e-014 -1.90833e-014
rhumerus -74.5489 13.9044 -94.5206
rradius 63.0551
rwrist -47.3615
rhand -30.8875 -2.35467
rfingers 7.12502
rthumb -4.17449 -32.2935
lclavicle 1.43125e-014 -1.90833e-014
lhumerus -45.3979 5.09911 45.2867
lradius 77.1609
lwrist 14.1397
lhand -35.6211 15.4593
lfingers 7.12502
lthumb -8.74418 45.2582
rfemur -10.6378 9.13306 16.0513
rtibia 39.8949
rfoot -19.3546 -36.9165
rtoes 9.23793
lfemur -10.0793 -8.02064 -19.6905
ltibia 54.1555
lfoot -18.3364 1.45167
ltoes 6.60697
246
root 30.826 14.6484 5.76824 178.873 6.97279 -170.46
lowerback 15.4876 -0.295235 -1.86429
upperback 6.57757 0.265948 1.03387
thorax -1.71255 0.465093 2.08104
lowerneck -9.71634 8.55919 10.1033
upperneck 3.53539 10.5765 -5.89125
head 3.4558 5.17961 -2.71017
rclavicle -1.23246e-014 3.18055e-014
rhumerus -70.8854 13.3846 -95.0697
rradius 61.5712
rwrist -49.4464
rhand -31.3227 -3.2894
rfingers 7.12502
rthumb -4.59479 -33.2196
lclavicle -1.23246e-014 3.18055e-014
lhumerus -45.41 5.38738 49.071
lradius 76.1516
lwrist 17.0033
lhand -35.476 19.8733
lfingers 7.12502
lthumb -8.60418 49.678
rfemur -12.0476 7.52881 14.8352
rtibia 43.0258
rfoot -17.5356 -36.4029
rtoes -14.8337
lfemur -11.4093 -9.52868 -19.1396
ltibia 57.1118
lfoot -22.9174 2.19324
ltoes 6.7279
247
root 31.2081 14.3603 5.86451 178.835 6.64866 -170.486
lowerback 16.5281 -0.273703 -2.21658
upperback 6.68813 0.280948 0.845796
thorax -2.14131 0.499396 2.07768
lowerneck -10.3661 8.37286 10.195
upperneck 3.67492 10.2492 -5.74635
head 3.57246 5.0182 -2.67966
rclavicle -5.96354e-015 -1.11319e-014
rhumerus -66.795 13.2419 -95.5977
rradius 59.7593
rwrist -51.6109
rhand -32.4423 -3.57626
rfingers 7.12502
rthumb -5.67574 -33.4802
lclavicle -5.96354e-015 -1.11319e-014
lhumerus -44.4309 6.2404 53.2316
lradius 74.2477
lwrist 20.1883
lhand -35.7868 18.3901
lfingers 7.12502
lthumb -8.90411 48.1823
rfemur -13.418 5.35838 14.8244
rtibia 46.5475
rfoot -20.2274 -32.5169
rtoes -28.086
lfemur -12.6894 -10.6783 -17.8226
ltibia 60.3137
lfoot -26.8627 3.5767
ltoes 1.90907
248
root 31.6037 14.1239 5.95276 179.033 6.56875 -173.547
lowerback 16.983 0.337312 -5.70879
upperback 6.60619 0.510699 -0.222199
thorax -2.4497 0.597295 2.88403
lowerneck -11.0564 7.58345 9.77198
upperneck 3.84239 9.16272 -5.36584
head 3.61198 4.48358 -2.56531
rclavicle 1.23246e-014 -7.95139e-015
rhumerus -62.0475 13.2577 -96.0858
rradius 57.2961
rwrist -52.962
rhand -33.6026 -4.42595
rfingers 7.12502
rthumb -6.79596 -34.2969
lclavicle 1.23246e-014 -7.95139e-015
lhumerus -42.2212 5.65056 58.0321
lradius 71.6324
lwrist 20.4772
lhand -33.4573 23.8676
lfingers 7.12502
lthumb -6.65565 53.743
rfemur -15.9583 2.47958 12.1919
rtibia 50.5634
rfoot -22.0571 -28.6865
rtoes -36.257
lfemur -14.6879 -11.5057 -19.6244
ltibia 63.2672
lfoot -29.5529 4.12671
ltoes 2.694
249
root 31.9211 13.9204 6.04067 179.491 7.15895 -171.259
lowerback 18.0194 0.315339 -2.43892
upperback 6.57488 0.990186 -0.476234
thorax -3.05742 0.89802 0.656898
lowerneck -11.8276 6.99578 9.47553
upperneck 3.9809 8.30601 -4.59584
head 3.66622 4.08742 -2.33029
rclavicle -4.77083e-015 -1.11319e-014
rhumerus -57.876 13.5078 -96.5236
rradius 56.0026
rwrist -54.0424
rhand -33.2407 -6.59669
rfingers 7.12502
rthumb -6.44662 -36.4786
lclavicle -4.77083e-015 -1.11319e-014
lhumerus -39.3131 4.98024 62.5414
lradius 68.8042
lwrist 20.8812
lhand -38.9734 9.75236
lfingers 7.12502
lthumb -11.978 39.3896
rfemur -17.7827 1.57261 15.7294
rtibia 53.7721
rfoot -25.3915 -28.5255
rtoes -37.7054
lfemur -16.6281 -11.1145 -15.5714
ltibia 66.6345
lfoot -31.452 5.00011
ltoes 0.67828
250
root 32.2667 13.7771 6.10489 180.044 7.36996 -170.488
lowerback 18.6006 0.29454 -1.45095
upperback 6.41915 1.1023 -0.762557
thorax -3.51573 0.966243 -0.24294
lowerneck -11.7846 6.69366 8.87621
upperneck 3.07054 7.96809 -4.01896
head 3.30861 3.9417 -2.1069
rclavicle -3.18055e-015 -4.13472e-014
rhumerus -54.8275 14.9658 -96.579
rradius 56.5942
rwrist -54.9254
rhand -35.2912 -6.21767
rfingers 7.12502
rthumb -8.42584 -36.0296
lclavicle -3.18055e-015 -4.13472e-014
lhumerus -36.9794 4.37665 67.2047
lradius 67.7398
lwrist 22.1379
lhand -39.2509 9.47052
lfingers 7.12502
lthumb -12.2455 39.092
rfemur -20.0277 0.14108 18.0888
rtibia 57.0018
rfoot -27.5797 -28.9804
rtoes -39.9866
lfemur -18.1879 -11.2352 -13.2302
ltibia 68.9
lfoot -32.3687 6.60833
ltoes -3.00984
251
root 32.6193 13.6766 6.16095 180.028 7.67595 -171.027
lowerback 19.4236 0.518599 -2.09784
upperback 6.37725 1.2758 -1.32289
thorax -3.98323 1.07373 -0.530072
lowerneck -12.1414 6.39731 8.76591
upperneck 3.13163 7.55191 -3.86596
head 3.34734 3.73968 -2.06466
rclavicle 2.06736e-014 1.90833e-014
rhumerus -52.6742 16.1529 -95.6056
rradius 59.2192
rwrist -52.7422
rhand -37.3338 -4.60974
rfingers 7.12502
rthumb -10.3967 -34.3327
lclavicle 2.06736e-014 1.90833e-014
lhumerus -34.9292 3.0205 71.5699
lradius 68.2214
lwrist 23.2195
lhand -38.7065 7.84113
lfingers 7.12502
lthumb -11.7206 37.4932
rfemur -21.642 -0.869981 19.0822
rtibia 59.6522
rfoot -29.9576 -28.7586
rtoes -38.16
lfemur -18.7376 -11.731 -12.4365
ltibia 70.2361
lfoot -32.6878 8.1469
ltoes -6.07564
252
root 33.0044 13.6449 6.16854 180.474 7.82263 -175.303
lowerback 18.4575 1.10113 -6.81724
upperback 6.23776 1.22913 -2.69746
thorax -3.6269 1.06087 0.704605
lowerneck -12.3693 6.12553 8.18748
upperneck 3.09574 7.24224 -3.63042
head 3.32412 3.58659 -1.92251
rclavicle 7.95139e-016 -3.33958e-014
rhumerus -51.3577 17.5613 -93.8777
rradius 63.1757
rwrist -47.7101
rhand -34.5257 -4.86295
rfingers 7.12502
rthumb -7.68695 -34.7032
lclavicle 7.95139e-016 -3.33958e-014
lhumerus -33.1063 1.33808 75.6589
lradius 69.3491
lwrist 23.2321
lhand -38.7914 9.02832
lfingers 7.12502
lthumb -11.8025 38.6758
rfemur -24.1105 -1.59753 15.9496
rtibia 62.0882
rfoot -31.3296 -28.0765
rtoes -36.7289
lfemur -19.2388 -13.2453 -15.9085
ltibia 70.0168
lfoot -32.1738 10.6272
ltoes -8.75339
253
root 33.3539 13.6564 6.1625 180.52 7.7838 -176.446
lowerback 18.2925 1.05899 -7.98552
upperback 6.19787 1.02335 -3.58302
thorax -3.54807 0.99361 0.461324
lowerneck -12.458 5.8971 7.98795
upperneck 3.19484 6.93757 -3.24083
head 3.32971 3.45098 -1.79276
rclavicle 7.15625e-015 -5.24792e-014
rhumerus -51.1938 19.4567 -93.1591
rradius 68.6487
rwrist -45.9619
rhand -34.5986 -1.03544
rfingers 7.12502
rthumb -7.7574 -30.8731
lclavicle 7.15625e-015 -5.24792e-014
lhumerus -31.894 0.113259 78.7832
lradius 72.0156
lwrist 22.7805
lhand -37.4257 6.94942
lfingers 7.12502
lthumb -10.4853 36.6679
rfemur -24.7327 -1.83822 16.3624
rtibia 63.2136
rfoot -32.4374 -28.0703
rtoes -35.3788
lfemur -18.743 -14.9628 -16.0651
ltibia 69.3303
lfoot -31.2782 12.5339
ltoes -11.2291
254
root 33.707 13.7635 6.12 181.036 7.53165 -174.714
lowerback 17.7544 0.657837 -6.36521
upperback 6.11721 0.756714 -3.71999
thorax -3.34567 0.843524 -0.521053
lowerneck -12.2776 5.8716 7.67989
upperneck 2.90141 6.92429 -2.5464
head 3.55282 3.47971 -1.72177
rclavicle 6.36111e-015 6.52014e-014
rhumerus -51.5416 20.8334 -91.9255
rradius 73.6913
rwrist -41.2218
rhand -32.4575 0.393091
rfingers 7.12502
rthumb -5.69047 -29.5105
lclavicle 6.36111e-015 6.52014e-014
lhumerus -31.9357 -0.43781 81.2591
lradius 74.7689
lwrist 23.5137
lhand -36.654 4.06617
lfingers 7.12502
lthumb -9.74084 33.8209
rfemur -24.1845 -2.01296 20.2155
rtibia 62.6253
rfoot -33.4664 -28.7907
rtoes -33.3107
lfemur -17.9257 -16.5126 -12.8388
ltibia 67.8723
lfoot -30.1604 13.5704
ltoes -12.4236
255
root 34.0295 13.9138 6.08883 181.651 7.08364 -174.414
lowerback 17.2375 0.361263 -5.79618
upperback 5.79342 0.425158 -4.31769
thorax -3.40887 0.678413 -1.40236
lowerneck -11.9079 5.72964 7.2727
upperneck 2.91707 6.78344 -1.79654
head 3.42094 3.43893 -1.41607
rclavicle 1.43125e-014 8.5875e-014
rhumerus -52.3432 21.5372 -90.746
rradius 78.3691
rwrist -37.9225
rhand -31.7532 3.68999
rfingers 7.12502
rthumb -5.01041 -26.2308
lclavicle 1.43125e-014 8.5875e-014
lhumerus -32.7221 5.27386 84.028
lradius 79.4504
lwrist 19.1854
lhand -28.598 3.85713
lfingers 7.12502
lthumb -1.96343 33.8278
rfemur -23.8518 -2.99636 22.2106
rtibia 61.0718
rfoot -33.1221 -29.2964
rtoes -31.4256
lfemur -17.5352 -17.8309 -11.1849
ltibia 65.8196
lfoot -28.224 13.986
ltoes -10.7627
256
root 34.3989 14.1243 6.02428 182.149 6.5325 -174.251
lowerback 16.2148 0.154064 -5.78792
upperback 5.68021 0.228295 -5.0274
thorax -2.97961 0.588402 -2.10252
lowerneck -11.8158 5.54027 6.83304
upperneck 3.13723 6.54973 -0.67614
head 3.39531 3.37366 -0.982426
rclavicle 2.78299e-014 1.17681e-013
rhumerus -53.5674 22.2019 -90.4135
rradius 82.6178
rwrist -37.9169
rhand -32.4932 4.52296
rfingers 7.12502
rthumb -5.72495 -25.3797
lclavicle 2.78299e-014 1.17681e-013
lhumerus -32.6456 10.2493 86.0367
lradius 84.6299
lwrist 15.4459
lhand -27.6015 4.68608
lfingers 7.12502
lthumb -1.00107 34.6635
rfemur -22.6754 -3.7896 24.3262
rtibia 58.4893
rfoot -31.6882 -30.517
rtoes -30.0579
lfemur -16.5629 -19.3366 -9.47335
ltibia 63.1769
lfoot -26.6789 11.954
ltoes -0.119509
257
root 34.7701 14.4223 5.93248 183.009 6.02184 -174.131
lowerback 14.7062 -0.0827976 -5.80599
upperback 5.45763 0.0218793 -5.87619
thorax -2.40657 0.490914 -2.92992
lowerneck -11.5205 5.36024 6.94642
upperneck 3.20801 6.29236 0.0793264
head 3.32402 3.29017 -0.77719
rclavicle -9.54166e-015 -3.18055e-015
rhumerus -55.6058 22.0682 -90.4294
rradius 86.5635
rwrist -37.5073
rhand -33.7652 3.90677
rfingers 7.12502
rthumb -6.9529 -25.959
lclavicle -9.54166e-015 -3.18055e-015
lhumerus -33.101 9.40433 86.431
lradius 87.9779
lwrist 16.7769
lhand -28.3659 5.07258
lfingers 7.12502
lthumb -1.7393 35.0452
rfemur -21.7566 -4.59832 26.1015
rtibia 55.5581
rfoot -30.1569 -29.7576
rtoes -24.371
lfemur -16.0062 -19.6725 -7.86421
ltibia 60.0162
lfoot -21.3985 13.8211
ltoes -5.73026
